<?xml version="1.0" standalone="no"?>
<!DOCTYPE svg PUBLIC "-//W3C//DTD SVG 20010904//EN"
 "http://www.w3.org/TR/2001/REC-SVG-20010904/DTD/svg10.dtd">
<svg version="1.0" xmlns="http://www.w3.org/2000/svg"
 width="13.000000pt" height="26.000000pt" viewBox="0 0 13.000000 26.000000"
 preserveAspectRatio="xMidYMid meet">
<metadata>
Created by potrace 1.16, written by Peter Selinger 2001-2019
</metadata>
<g transform="translate(0.000000,26.000000) scale(0.100000,-0.100000)"
fill="#000000" stroke="none">
<path d="M40 241 c-5 -11 -10 -31 -10 -45 0 -16 -6 -26 -15 -26 -9 0 -15 -9
-15 -25 0 -16 6 -25 15 -25 12 0 15 -13 15 -55 0 -54 0 -55 30 -55 30 0 30 1
30 55 0 42 3 55 15 55 8 0 15 4 15 9 0 5 3 16 6 25 4 12 0 16 -15 16 -14 0
-21 6 -21 20 0 13 7 20 20 20 15 0 20 7 20 25 0 22 -4 25 -40 25 -29 0 -42 -5
-50 -19z"/>
</g>
</svg>
