<?xml version="1.0" encoding="iso-8859-1"?>
<!-- Generator: Adobe Illustrator 19.0.0, SVG Export Plug-In . SVG Version: 6.00 Build 0)  -->
<svg version="1.1" id="Capa_1" xmlns="http://www.w3.org/2000/svg" xmlns:xlink="http://www.w3.org/1999/xlink" x="0px" y="0px"
	 viewBox="0 0 397.324 397.324" style="enable-background:new 0 0 397.324 397.324;" xml:space="preserve">
<g>
	<g>
		<path d="M311.754,141.312c0.016-6.432-5.2-11.648-11.648-11.648c-0.912,0-1.792,0.08-2.608,0.304
			c-11.952,2.72-22.64,8.752-31.008,17.104c-11.568,11.568-18.72,27.552-18.72,45.2l0.016,16.016L140.138,100.64
			c-12.448-12.448-32.816-12.448-45.248,0c-12.448,12.448-12.448,32.816,0,45.248l49.776,49.776
			c-9.2-0.944-18.72,1.984-25.776,9.024c-4.896,4.896-7.808,11.024-8.848,17.376l-20.528,76.928
			c-2.816,10.64-0.096,22.432,8.224,30.768l37.216,37.216c40.464,40.464,106.032,40.464,146.496,0
			c19.6-19.6,29.616-45.088,30.208-70.752l0.112,0.096v-2.512c0-0.048,0-0.096,0-0.112L311.754,141.312z M295.642,295.84
			c-0.544,22.656-9.616,43.904-25.536,59.808c-34.16,34.16-89.712,34.16-123.856,0l-37.216-37.216
			c-3.984-3.984-5.472-9.712-4-15.328l20.768-78.432c0.384-2.336,1.456-5.744,4.368-8.672c4.528-4.528,9.984-4.72,12.848-4.432
			l22.352,2.256c3.36,0.336,6.576-1.472,8.032-4.528c1.456-3.056,0.816-6.688-1.568-9.088l-65.648-65.648
			c-6.24-6.24-6.24-16.4,0-22.624c6.24-6.24,16.4-6.24,22.624,0L241.914,225.04c4.816,4.816,11.872,5.824,17.728,3.2
			c2.512-1.136,4.128-3.632,4.128-6.384v-29.568c0-12.8,4.992-24.832,14.032-33.888c5.104-5.104,11.216-8.96,17.936-11.344
			L295.642,295.84z"/>
	</g>
</g>
<g>
	<g>
		<polygon points="279.786,40.272 198.41,40.272 227.37,11.312 216.058,0 167.786,48.272 215.994,96.496 227.306,85.184 
			198.41,56.272 279.786,56.272 		"/>
	</g>
</g>
<g>
</g>
<g>
</g>
<g>
</g>
<g>
</g>
<g>
</g>
<g>
</g>
<g>
</g>
<g>
</g>
<g>
</g>
<g>
</g>
<g>
</g>
<g>
</g>
<g>
</g>
<g>
</g>
<g>
</g>
</svg>
